<mxfile host="app.diagrams.net" agent="Mozilla/5.0 (Windows NT 10.0; Win64; x64) AppleWebKit/537.36 (KHTML, like Gecko) Chrome/132.0.0.0 Safari/537.36" version="26.0.4">
  <diagram name="Página-1" id="FWx0Xs0AINx8zUi2295R">
    <mxGraphModel dx="3474" dy="1533" grid="1" gridSize="10" guides="1" tooltips="1" connect="1" arrows="1" fold="1" page="1" pageScale="1" pageWidth="827" pageHeight="1169" math="0" shadow="0">
      <root>
        <mxCell id="0" />
        <mxCell id="1" parent="0" />
        <mxCell id="-OwI9-CpuGyddkJ4qVBc-4" value="" style="edgeStyle=orthogonalEdgeStyle;rounded=0;orthogonalLoop=1;jettySize=auto;html=1;" edge="1" parent="1" source="-OwI9-CpuGyddkJ4qVBc-1" target="-OwI9-CpuGyddkJ4qVBc-3">
          <mxGeometry relative="1" as="geometry" />
        </mxCell>
        <mxCell id="-OwI9-CpuGyddkJ4qVBc-6" value="" style="edgeStyle=orthogonalEdgeStyle;rounded=0;orthogonalLoop=1;jettySize=auto;html=1;" edge="1" parent="1" source="-OwI9-CpuGyddkJ4qVBc-1" target="-OwI9-CpuGyddkJ4qVBc-5">
          <mxGeometry relative="1" as="geometry" />
        </mxCell>
        <mxCell id="-OwI9-CpuGyddkJ4qVBc-8" value="" style="edgeStyle=orthogonalEdgeStyle;rounded=0;orthogonalLoop=1;jettySize=auto;html=1;" edge="1" parent="1" source="-OwI9-CpuGyddkJ4qVBc-1" target="-OwI9-CpuGyddkJ4qVBc-7">
          <mxGeometry relative="1" as="geometry" />
        </mxCell>
        <mxCell id="-OwI9-CpuGyddkJ4qVBc-1" value="&lt;font style=&quot;font-size: 18px;&quot;&gt;Logica de programacion&amp;nbsp;&lt;/font&gt;" style="rounded=0;whiteSpace=wrap;html=1;" vertex="1" parent="1">
          <mxGeometry x="-130" y="30" width="260" height="30" as="geometry" />
        </mxCell>
        <mxCell id="-OwI9-CpuGyddkJ4qVBc-3" value="&lt;font style=&quot;font-size: 19px;&quot;&gt;Resolver un problema&lt;/font&gt;" style="whiteSpace=wrap;html=1;rounded=0;" vertex="1" parent="1">
          <mxGeometry x="-350" y="150" width="230" height="60" as="geometry" />
        </mxCell>
        <mxCell id="-OwI9-CpuGyddkJ4qVBc-5" value="&lt;font style=&quot;font-size: 18px;&quot;&gt;Realizar una tarea&lt;/font&gt;" style="whiteSpace=wrap;html=1;rounded=0;" vertex="1" parent="1">
          <mxGeometry x="130" y="150" width="220" height="60" as="geometry" />
        </mxCell>
        <mxCell id="-OwI9-CpuGyddkJ4qVBc-10" value="" style="edgeStyle=orthogonalEdgeStyle;rounded=0;orthogonalLoop=1;jettySize=auto;html=1;" edge="1" parent="1" source="-OwI9-CpuGyddkJ4qVBc-7" target="-OwI9-CpuGyddkJ4qVBc-9">
          <mxGeometry relative="1" as="geometry" />
        </mxCell>
        <mxCell id="-OwI9-CpuGyddkJ4qVBc-7" value="Instrucciones preciosas" style="whiteSpace=wrap;html=1;rounded=0;" vertex="1" parent="1">
          <mxGeometry x="-90" y="390" width="180" height="60" as="geometry" />
        </mxCell>
        <mxCell id="-OwI9-CpuGyddkJ4qVBc-12" value="" style="edgeStyle=orthogonalEdgeStyle;rounded=0;orthogonalLoop=1;jettySize=auto;html=1;" edge="1" parent="1" source="-OwI9-CpuGyddkJ4qVBc-9" target="-OwI9-CpuGyddkJ4qVBc-11">
          <mxGeometry relative="1" as="geometry" />
        </mxCell>
        <mxCell id="-OwI9-CpuGyddkJ4qVBc-14" value="" style="edgeStyle=orthogonalEdgeStyle;rounded=0;orthogonalLoop=1;jettySize=auto;html=1;" edge="1" parent="1" source="-OwI9-CpuGyddkJ4qVBc-9" target="-OwI9-CpuGyddkJ4qVBc-13">
          <mxGeometry relative="1" as="geometry" />
        </mxCell>
        <mxCell id="-OwI9-CpuGyddkJ4qVBc-16" value="" style="edgeStyle=orthogonalEdgeStyle;rounded=0;orthogonalLoop=1;jettySize=auto;html=1;" edge="1" parent="1" source="-OwI9-CpuGyddkJ4qVBc-9" target="-OwI9-CpuGyddkJ4qVBc-15">
          <mxGeometry relative="1" as="geometry" />
        </mxCell>
        <mxCell id="-OwI9-CpuGyddkJ4qVBc-9" value="Entrada&lt;div&gt;(INput)&lt;/div&gt;" style="whiteSpace=wrap;html=1;rounded=0;" vertex="1" parent="1">
          <mxGeometry x="-340" y="600" width="120" height="60" as="geometry" />
        </mxCell>
        <mxCell id="-OwI9-CpuGyddkJ4qVBc-24" value="" style="edgeStyle=orthogonalEdgeStyle;rounded=0;orthogonalLoop=1;jettySize=auto;html=1;" edge="1" parent="1" source="-OwI9-CpuGyddkJ4qVBc-11" target="-OwI9-CpuGyddkJ4qVBc-23">
          <mxGeometry relative="1" as="geometry" />
        </mxCell>
        <mxCell id="-OwI9-CpuGyddkJ4qVBc-11" value="Usuario escribe el nombre&amp;nbsp;" style="whiteSpace=wrap;html=1;rounded=0;" vertex="1" parent="1">
          <mxGeometry x="-10" y="524" width="120" height="60" as="geometry" />
        </mxCell>
        <mxCell id="-OwI9-CpuGyddkJ4qVBc-13" value="Sensor nos indica la temperatura" style="whiteSpace=wrap;html=1;rounded=0;" vertex="1" parent="1">
          <mxGeometry x="-10" y="670" width="120" height="60" as="geometry" />
        </mxCell>
        <mxCell id="-OwI9-CpuGyddkJ4qVBc-18" value="" style="edgeStyle=orthogonalEdgeStyle;rounded=0;orthogonalLoop=1;jettySize=auto;html=1;" edge="1" parent="1" source="-OwI9-CpuGyddkJ4qVBc-15" target="-OwI9-CpuGyddkJ4qVBc-17">
          <mxGeometry relative="1" as="geometry" />
        </mxCell>
        <mxCell id="-OwI9-CpuGyddkJ4qVBc-20" value="" style="edgeStyle=orthogonalEdgeStyle;rounded=0;orthogonalLoop=1;jettySize=auto;html=1;" edge="1" parent="1" source="-OwI9-CpuGyddkJ4qVBc-15" target="-OwI9-CpuGyddkJ4qVBc-19">
          <mxGeometry relative="1" as="geometry" />
        </mxCell>
        <mxCell id="-OwI9-CpuGyddkJ4qVBc-22" value="" style="edgeStyle=orthogonalEdgeStyle;rounded=0;orthogonalLoop=1;jettySize=auto;html=1;" edge="1" parent="1" source="-OwI9-CpuGyddkJ4qVBc-15" target="-OwI9-CpuGyddkJ4qVBc-21">
          <mxGeometry relative="1" as="geometry">
            <Array as="points">
              <mxPoint x="-110" y="930" />
              <mxPoint x="-110" y="1060" />
            </Array>
          </mxGeometry>
        </mxCell>
        <mxCell id="-OwI9-CpuGyddkJ4qVBc-33" value="" style="edgeStyle=orthogonalEdgeStyle;rounded=0;orthogonalLoop=1;jettySize=auto;html=1;" edge="1" parent="1" source="-OwI9-CpuGyddkJ4qVBc-15" target="-OwI9-CpuGyddkJ4qVBc-32">
          <mxGeometry relative="1" as="geometry" />
        </mxCell>
        <mxCell id="-OwI9-CpuGyddkJ4qVBc-15" value="Proceso&lt;div&gt;(logica)&lt;/div&gt;" style="whiteSpace=wrap;html=1;rounded=0;" vertex="1" parent="1">
          <mxGeometry x="-340" y="900" width="120" height="60" as="geometry" />
        </mxCell>
        <mxCell id="-OwI9-CpuGyddkJ4qVBc-17" value="Operaciones Matemacticas" style="whiteSpace=wrap;html=1;rounded=0;" vertex="1" parent="1">
          <mxGeometry x="-10" y="850" width="120" height="60" as="geometry" />
        </mxCell>
        <mxCell id="-OwI9-CpuGyddkJ4qVBc-19" value="Comparaciones&lt;div&gt;(Mayor que ?)&lt;/div&gt;" style="whiteSpace=wrap;html=1;rounded=0;" vertex="1" parent="1">
          <mxGeometry x="-10" y="940" width="120" height="60" as="geometry" />
        </mxCell>
        <mxCell id="-OwI9-CpuGyddkJ4qVBc-26" value="" style="edgeStyle=orthogonalEdgeStyle;rounded=0;orthogonalLoop=1;jettySize=auto;html=1;" edge="1" parent="1" source="-OwI9-CpuGyddkJ4qVBc-21" target="-OwI9-CpuGyddkJ4qVBc-25">
          <mxGeometry relative="1" as="geometry" />
        </mxCell>
        <mxCell id="-OwI9-CpuGyddkJ4qVBc-21" value="Manipula Datos&lt;div&gt;(convertir texto en mayúsculas, ordenar números)&lt;/div&gt;" style="whiteSpace=wrap;html=1;rounded=0;" vertex="1" parent="1">
          <mxGeometry x="-10" y="1030" width="120" height="60" as="geometry" />
        </mxCell>
        <mxCell id="-OwI9-CpuGyddkJ4qVBc-31" style="edgeStyle=orthogonalEdgeStyle;rounded=0;orthogonalLoop=1;jettySize=auto;html=1;exitX=0.5;exitY=1;exitDx=0;exitDy=0;entryX=0.5;entryY=0;entryDx=0;entryDy=0;" edge="1" parent="1" source="-OwI9-CpuGyddkJ4qVBc-23" target="-OwI9-CpuGyddkJ4qVBc-25">
          <mxGeometry relative="1" as="geometry" />
        </mxCell>
        <mxCell id="-OwI9-CpuGyddkJ4qVBc-23" value="SI el usuario introduce su edad" style="whiteSpace=wrap;html=1;rounded=0;" vertex="1" parent="1">
          <mxGeometry x="410" y="720" width="120" height="60" as="geometry" />
        </mxCell>
        <mxCell id="-OwI9-CpuGyddkJ4qVBc-30" style="edgeStyle=orthogonalEdgeStyle;rounded=0;orthogonalLoop=1;jettySize=auto;html=1;entryX=0.5;entryY=1;entryDx=0;entryDy=0;" edge="1" parent="1" source="-OwI9-CpuGyddkJ4qVBc-25" target="-OwI9-CpuGyddkJ4qVBc-23">
          <mxGeometry relative="1" as="geometry" />
        </mxCell>
        <mxCell id="-OwI9-CpuGyddkJ4qVBc-25" value="El programa calcula el año que nacio" style="whiteSpace=wrap;html=1;rounded=0;" vertex="1" parent="1">
          <mxGeometry x="410" y="850" width="120" height="60" as="geometry" />
        </mxCell>
        <mxCell id="-OwI9-CpuGyddkJ4qVBc-35" value="" style="edgeStyle=orthogonalEdgeStyle;rounded=0;orthogonalLoop=1;jettySize=auto;html=1;" edge="1" parent="1" source="-OwI9-CpuGyddkJ4qVBc-32" target="-OwI9-CpuGyddkJ4qVBc-34">
          <mxGeometry relative="1" as="geometry" />
        </mxCell>
        <mxCell id="-OwI9-CpuGyddkJ4qVBc-48" value="" style="edgeStyle=orthogonalEdgeStyle;rounded=0;orthogonalLoop=1;jettySize=auto;html=1;" edge="1" parent="1" source="-OwI9-CpuGyddkJ4qVBc-32" target="-OwI9-CpuGyddkJ4qVBc-47">
          <mxGeometry relative="1" as="geometry" />
        </mxCell>
        <mxCell id="-OwI9-CpuGyddkJ4qVBc-32" value="Condicionales&lt;div&gt;(decisiones)&lt;/div&gt;" style="whiteSpace=wrap;html=1;rounded=0;" vertex="1" parent="1">
          <mxGeometry x="-350" y="1190" width="120" height="70" as="geometry" />
        </mxCell>
        <mxCell id="-OwI9-CpuGyddkJ4qVBc-38" value="" style="edgeStyle=orthogonalEdgeStyle;rounded=0;orthogonalLoop=1;jettySize=auto;html=1;" edge="1" parent="1" source="-OwI9-CpuGyddkJ4qVBc-34" target="-OwI9-CpuGyddkJ4qVBc-37">
          <mxGeometry relative="1" as="geometry" />
        </mxCell>
        <mxCell id="-OwI9-CpuGyddkJ4qVBc-34" value="If&lt;div&gt;else&lt;/div&gt;&lt;div&gt;switch&lt;/div&gt;&lt;div&gt;while&lt;/div&gt;&lt;div&gt;else if&lt;/div&gt;&lt;div&gt;elif&lt;/div&gt;" style="whiteSpace=wrap;html=1;rounded=0;" vertex="1" parent="1">
          <mxGeometry y="1165" width="120" height="110" as="geometry" />
        </mxCell>
        <mxCell id="-OwI9-CpuGyddkJ4qVBc-40" value="" style="edgeStyle=orthogonalEdgeStyle;rounded=0;orthogonalLoop=1;jettySize=auto;html=1;" edge="1" parent="1" source="-OwI9-CpuGyddkJ4qVBc-37" target="-OwI9-CpuGyddkJ4qVBc-39">
          <mxGeometry relative="1" as="geometry">
            <Array as="points">
              <mxPoint x="520" y="1220" />
              <mxPoint x="520" y="1220" />
            </Array>
          </mxGeometry>
        </mxCell>
        <mxCell id="-OwI9-CpuGyddkJ4qVBc-44" value="" style="edgeStyle=orthogonalEdgeStyle;rounded=0;orthogonalLoop=1;jettySize=auto;html=1;" edge="1" parent="1" source="-OwI9-CpuGyddkJ4qVBc-37" target="-OwI9-CpuGyddkJ4qVBc-43">
          <mxGeometry relative="1" as="geometry" />
        </mxCell>
        <mxCell id="-OwI9-CpuGyddkJ4qVBc-37" value="Temperatura" style="rhombus;whiteSpace=wrap;html=1;rounded=0;" vertex="1" parent="1">
          <mxGeometry x="310" y="1165" width="130" height="110" as="geometry" />
        </mxCell>
        <mxCell id="-OwI9-CpuGyddkJ4qVBc-42" value="" style="edgeStyle=orthogonalEdgeStyle;rounded=0;orthogonalLoop=1;jettySize=auto;html=1;" edge="1" parent="1" source="-OwI9-CpuGyddkJ4qVBc-39" target="-OwI9-CpuGyddkJ4qVBc-41">
          <mxGeometry relative="1" as="geometry" />
        </mxCell>
        <mxCell id="-OwI9-CpuGyddkJ4qVBc-39" value="SI es mayor a 30 grados" style="whiteSpace=wrap;html=1;rounded=0;" vertex="1" parent="1">
          <mxGeometry x="580" y="1190" width="120" height="60" as="geometry" />
        </mxCell>
        <mxCell id="-OwI9-CpuGyddkJ4qVBc-41" value="Hace calor" style="whiteSpace=wrap;html=1;rounded=0;" vertex="1" parent="1">
          <mxGeometry x="580" y="1330" width="120" height="60" as="geometry" />
        </mxCell>
        <mxCell id="-OwI9-CpuGyddkJ4qVBc-46" value="" style="edgeStyle=orthogonalEdgeStyle;rounded=0;orthogonalLoop=1;jettySize=auto;html=1;" edge="1" parent="1" source="-OwI9-CpuGyddkJ4qVBc-43" target="-OwI9-CpuGyddkJ4qVBc-45">
          <mxGeometry relative="1" as="geometry" />
        </mxCell>
        <mxCell id="-OwI9-CpuGyddkJ4qVBc-43" value="De lo contrario&amp;nbsp;" style="whiteSpace=wrap;html=1;rounded=0;" vertex="1" parent="1">
          <mxGeometry x="315" y="1380" width="120" height="60" as="geometry" />
        </mxCell>
        <mxCell id="-OwI9-CpuGyddkJ4qVBc-45" value="Hace fresco" style="whiteSpace=wrap;html=1;rounded=0;" vertex="1" parent="1">
          <mxGeometry x="490" y="1430" width="120" height="60" as="geometry" />
        </mxCell>
        <mxCell id="-OwI9-CpuGyddkJ4qVBc-50" value="" style="edgeStyle=orthogonalEdgeStyle;rounded=0;orthogonalLoop=1;jettySize=auto;html=1;" edge="1" parent="1" source="-OwI9-CpuGyddkJ4qVBc-47" target="-OwI9-CpuGyddkJ4qVBc-49">
          <mxGeometry relative="1" as="geometry" />
        </mxCell>
        <mxCell id="-OwI9-CpuGyddkJ4qVBc-54" value="" style="edgeStyle=orthogonalEdgeStyle;rounded=0;orthogonalLoop=1;jettySize=auto;html=1;" edge="1" parent="1" source="-OwI9-CpuGyddkJ4qVBc-47" target="-OwI9-CpuGyddkJ4qVBc-53">
          <mxGeometry relative="1" as="geometry" />
        </mxCell>
        <mxCell id="-OwI9-CpuGyddkJ4qVBc-47" value="Bucles&amp;nbsp;&lt;div&gt;(Repeticiones)&lt;/div&gt;" style="whiteSpace=wrap;html=1;rounded=0;" vertex="1" parent="1">
          <mxGeometry x="-350" y="1460" width="120" height="60" as="geometry" />
        </mxCell>
        <mxCell id="-OwI9-CpuGyddkJ4qVBc-52" value="" style="edgeStyle=orthogonalEdgeStyle;rounded=0;orthogonalLoop=1;jettySize=auto;html=1;" edge="1" parent="1" source="-OwI9-CpuGyddkJ4qVBc-49" target="-OwI9-CpuGyddkJ4qVBc-51">
          <mxGeometry relative="1" as="geometry" />
        </mxCell>
        <mxCell id="-OwI9-CpuGyddkJ4qVBc-49" value="Instrucciones&lt;div&gt;que se repiten hasta cumplir la condición&lt;/div&gt;" style="whiteSpace=wrap;html=1;rounded=0;" vertex="1" parent="1">
          <mxGeometry x="-160" y="1540" width="200" height="60" as="geometry" />
        </mxCell>
        <mxCell id="-OwI9-CpuGyddkJ4qVBc-51" value="Mostrar los números&lt;div&gt;del 1 al 10&lt;/div&gt;" style="whiteSpace=wrap;html=1;rounded=0;" vertex="1" parent="1">
          <mxGeometry x="110" y="1540" width="120" height="60" as="geometry" />
        </mxCell>
        <mxCell id="-OwI9-CpuGyddkJ4qVBc-56" value="" style="edgeStyle=orthogonalEdgeStyle;rounded=0;orthogonalLoop=1;jettySize=auto;html=1;" edge="1" parent="1" source="-OwI9-CpuGyddkJ4qVBc-53" target="-OwI9-CpuGyddkJ4qVBc-55">
          <mxGeometry relative="1" as="geometry" />
        </mxCell>
        <mxCell id="-OwI9-CpuGyddkJ4qVBc-66" value="" style="edgeStyle=orthogonalEdgeStyle;rounded=0;orthogonalLoop=1;jettySize=auto;html=1;" edge="1" parent="1" source="-OwI9-CpuGyddkJ4qVBc-53" target="-OwI9-CpuGyddkJ4qVBc-65">
          <mxGeometry relative="1" as="geometry" />
        </mxCell>
        <mxCell id="-OwI9-CpuGyddkJ4qVBc-53" value="Salida&lt;div&gt;(OUTPUT)&lt;/div&gt;" style="whiteSpace=wrap;html=1;rounded=0;" vertex="1" parent="1">
          <mxGeometry x="-350" y="1694" width="120" height="60" as="geometry" />
        </mxCell>
        <mxCell id="-OwI9-CpuGyddkJ4qVBc-58" value="" style="edgeStyle=orthogonalEdgeStyle;rounded=0;orthogonalLoop=1;jettySize=auto;html=1;" edge="1" parent="1" source="-OwI9-CpuGyddkJ4qVBc-55" target="-OwI9-CpuGyddkJ4qVBc-57">
          <mxGeometry relative="1" as="geometry" />
        </mxCell>
        <mxCell id="-OwI9-CpuGyddkJ4qVBc-60" value="" style="edgeStyle=orthogonalEdgeStyle;rounded=0;orthogonalLoop=1;jettySize=auto;html=1;" edge="1" parent="1" source="-OwI9-CpuGyddkJ4qVBc-55" target="-OwI9-CpuGyddkJ4qVBc-59">
          <mxGeometry relative="1" as="geometry" />
        </mxCell>
        <mxCell id="-OwI9-CpuGyddkJ4qVBc-55" value="Resultado final" style="whiteSpace=wrap;html=1;rounded=0;" vertex="1" parent="1">
          <mxGeometry x="-150" y="1694" width="120" height="60" as="geometry" />
        </mxCell>
        <mxCell id="-OwI9-CpuGyddkJ4qVBc-62" value="" style="edgeStyle=orthogonalEdgeStyle;rounded=0;orthogonalLoop=1;jettySize=auto;html=1;" edge="1" parent="1" source="-OwI9-CpuGyddkJ4qVBc-57" target="-OwI9-CpuGyddkJ4qVBc-61">
          <mxGeometry relative="1" as="geometry" />
        </mxCell>
        <mxCell id="-OwI9-CpuGyddkJ4qVBc-57" value="se le muestra al usuario" style="whiteSpace=wrap;html=1;rounded=0;" vertex="1" parent="1">
          <mxGeometry x="120" y="1660" width="120" height="60" as="geometry" />
        </mxCell>
        <mxCell id="-OwI9-CpuGyddkJ4qVBc-59" value="Se convierte en otro sistema" style="whiteSpace=wrap;html=1;rounded=0;" vertex="1" parent="1">
          <mxGeometry x="120" y="1754" width="120" height="60" as="geometry" />
        </mxCell>
        <mxCell id="-OwI9-CpuGyddkJ4qVBc-61" value="Mostrar hola (nombre)" style="whiteSpace=wrap;html=1;rounded=0;" vertex="1" parent="1">
          <mxGeometry x="320" y="1660" width="150" height="60" as="geometry" />
        </mxCell>
        <mxCell id="-OwI9-CpuGyddkJ4qVBc-68" value="" style="edgeStyle=orthogonalEdgeStyle;rounded=0;orthogonalLoop=1;jettySize=auto;html=1;" edge="1" parent="1" source="-OwI9-CpuGyddkJ4qVBc-65" target="-OwI9-CpuGyddkJ4qVBc-67">
          <mxGeometry relative="1" as="geometry" />
        </mxCell>
        <mxCell id="-OwI9-CpuGyddkJ4qVBc-70" value="" style="edgeStyle=orthogonalEdgeStyle;rounded=0;orthogonalLoop=1;jettySize=auto;html=1;" edge="1" parent="1" source="-OwI9-CpuGyddkJ4qVBc-65" target="-OwI9-CpuGyddkJ4qVBc-69">
          <mxGeometry relative="1" as="geometry" />
        </mxCell>
        <mxCell id="-OwI9-CpuGyddkJ4qVBc-72" value="" style="edgeStyle=orthogonalEdgeStyle;rounded=0;orthogonalLoop=1;jettySize=auto;html=1;" edge="1" parent="1" source="-OwI9-CpuGyddkJ4qVBc-65" target="-OwI9-CpuGyddkJ4qVBc-71">
          <mxGeometry relative="1" as="geometry">
            <Array as="points">
              <mxPoint x="-170" y="1864" />
              <mxPoint x="-170" y="1990" />
            </Array>
          </mxGeometry>
        </mxCell>
        <mxCell id="-OwI9-CpuGyddkJ4qVBc-74" value="" style="edgeStyle=orthogonalEdgeStyle;rounded=0;orthogonalLoop=1;jettySize=auto;html=1;" edge="1" parent="1" source="-OwI9-CpuGyddkJ4qVBc-65" target="-OwI9-CpuGyddkJ4qVBc-73">
          <mxGeometry relative="1" as="geometry" />
        </mxCell>
        <mxCell id="-OwI9-CpuGyddkJ4qVBc-65" value="Abstracción&amp;nbsp;&lt;div&gt;y&amp;nbsp;&lt;/div&gt;&lt;div&gt;modulación&amp;nbsp;&amp;nbsp;&lt;/div&gt;" style="whiteSpace=wrap;html=1;rounded=0;" vertex="1" parent="1">
          <mxGeometry x="-350" y="1834" width="120" height="60" as="geometry" />
        </mxCell>
        <mxCell id="-OwI9-CpuGyddkJ4qVBc-67" value="Funciones" style="whiteSpace=wrap;html=1;rounded=0;" vertex="1" parent="1">
          <mxGeometry x="-110" y="1800" width="120" height="60" as="geometry" />
        </mxCell>
        <mxCell id="-OwI9-CpuGyddkJ4qVBc-69" value="modulos" style="whiteSpace=wrap;html=1;rounded=0;" vertex="1" parent="1">
          <mxGeometry x="-110" y="1894" width="120" height="60" as="geometry" />
        </mxCell>
        <mxCell id="-OwI9-CpuGyddkJ4qVBc-71" value="clases" style="whiteSpace=wrap;html=1;rounded=0;" vertex="1" parent="1">
          <mxGeometry x="-110" y="1970" width="120" height="60" as="geometry" />
        </mxCell>
        <mxCell id="-OwI9-CpuGyddkJ4qVBc-76" value="" style="edgeStyle=orthogonalEdgeStyle;rounded=0;orthogonalLoop=1;jettySize=auto;html=1;" edge="1" parent="1" source="-OwI9-CpuGyddkJ4qVBc-73" target="-OwI9-CpuGyddkJ4qVBc-75">
          <mxGeometry relative="1" as="geometry" />
        </mxCell>
        <mxCell id="-OwI9-CpuGyddkJ4qVBc-79" value="" style="edgeStyle=orthogonalEdgeStyle;rounded=0;orthogonalLoop=1;jettySize=auto;html=1;" edge="1" parent="1" source="-OwI9-CpuGyddkJ4qVBc-73" target="-OwI9-CpuGyddkJ4qVBc-75">
          <mxGeometry relative="1" as="geometry" />
        </mxCell>
        <mxCell id="-OwI9-CpuGyddkJ4qVBc-80" value="" style="edgeStyle=orthogonalEdgeStyle;rounded=0;orthogonalLoop=1;jettySize=auto;html=1;" edge="1" parent="1" source="-OwI9-CpuGyddkJ4qVBc-73" target="-OwI9-CpuGyddkJ4qVBc-75">
          <mxGeometry relative="1" as="geometry" />
        </mxCell>
        <mxCell id="-OwI9-CpuGyddkJ4qVBc-82" value="" style="edgeStyle=orthogonalEdgeStyle;rounded=0;orthogonalLoop=1;jettySize=auto;html=1;" edge="1" parent="1" source="-OwI9-CpuGyddkJ4qVBc-73" target="-OwI9-CpuGyddkJ4qVBc-81">
          <mxGeometry relative="1" as="geometry" />
        </mxCell>
        <mxCell id="-OwI9-CpuGyddkJ4qVBc-96" value="" style="edgeStyle=orthogonalEdgeStyle;rounded=0;orthogonalLoop=1;jettySize=auto;html=1;" edge="1" parent="1" source="-OwI9-CpuGyddkJ4qVBc-73" target="-OwI9-CpuGyddkJ4qVBc-95">
          <mxGeometry relative="1" as="geometry" />
        </mxCell>
        <mxCell id="-OwI9-CpuGyddkJ4qVBc-73" value="Variables y tipos de datos" style="whiteSpace=wrap;html=1;rounded=0;" vertex="1" parent="1">
          <mxGeometry x="-350" y="2130" width="120" height="60" as="geometry" />
        </mxCell>
        <mxCell id="-OwI9-CpuGyddkJ4qVBc-78" value="" style="edgeStyle=orthogonalEdgeStyle;rounded=0;orthogonalLoop=1;jettySize=auto;html=1;" edge="1" parent="1" source="-OwI9-CpuGyddkJ4qVBc-75" target="-OwI9-CpuGyddkJ4qVBc-77">
          <mxGeometry relative="1" as="geometry" />
        </mxCell>
        <mxCell id="-OwI9-CpuGyddkJ4qVBc-75" value="Variables" style="whiteSpace=wrap;html=1;rounded=0;" vertex="1" parent="1">
          <mxGeometry x="-140" y="2080" width="120" height="60" as="geometry" />
        </mxCell>
        <mxCell id="-OwI9-CpuGyddkJ4qVBc-77" value="Espacios de memoria donde se almacenan datos" style="whiteSpace=wrap;html=1;rounded=0;" vertex="1" parent="1">
          <mxGeometry x="50" y="2080" width="120" height="60" as="geometry" />
        </mxCell>
        <mxCell id="-OwI9-CpuGyddkJ4qVBc-84" value="" style="edgeStyle=orthogonalEdgeStyle;rounded=0;orthogonalLoop=1;jettySize=auto;html=1;" edge="1" parent="1" source="-OwI9-CpuGyddkJ4qVBc-81" target="-OwI9-CpuGyddkJ4qVBc-83">
          <mxGeometry relative="1" as="geometry" />
        </mxCell>
        <mxCell id="-OwI9-CpuGyddkJ4qVBc-81" value="Tipos de datos&amp;nbsp;" style="whiteSpace=wrap;html=1;rounded=0;" vertex="1" parent="1">
          <mxGeometry x="-140" y="2170" width="120" height="60" as="geometry" />
        </mxCell>
        <mxCell id="-OwI9-CpuGyddkJ4qVBc-86" value="" style="edgeStyle=orthogonalEdgeStyle;rounded=0;orthogonalLoop=1;jettySize=auto;html=1;" edge="1" parent="1" source="-OwI9-CpuGyddkJ4qVBc-83" target="-OwI9-CpuGyddkJ4qVBc-85">
          <mxGeometry relative="1" as="geometry" />
        </mxCell>
        <mxCell id="-OwI9-CpuGyddkJ4qVBc-83" value="Lo que se almacena en una variable" style="whiteSpace=wrap;html=1;rounded=0;" vertex="1" parent="1">
          <mxGeometry x="60" y="2170" width="120" height="60" as="geometry" />
        </mxCell>
        <mxCell id="-OwI9-CpuGyddkJ4qVBc-90" value="" style="edgeStyle=orthogonalEdgeStyle;rounded=0;orthogonalLoop=1;jettySize=auto;html=1;" edge="1" parent="1" source="-OwI9-CpuGyddkJ4qVBc-85" target="-OwI9-CpuGyddkJ4qVBc-89">
          <mxGeometry relative="1" as="geometry" />
        </mxCell>
        <mxCell id="-OwI9-CpuGyddkJ4qVBc-91" value="" style="edgeStyle=orthogonalEdgeStyle;rounded=0;orthogonalLoop=1;jettySize=auto;html=1;" edge="1" parent="1" source="-OwI9-CpuGyddkJ4qVBc-85" target="-OwI9-CpuGyddkJ4qVBc-89">
          <mxGeometry relative="1" as="geometry" />
        </mxCell>
        <mxCell id="-OwI9-CpuGyddkJ4qVBc-85" value="Numeros&lt;div&gt;texto&lt;/div&gt;&lt;div&gt;boleanos&lt;/div&gt;" style="whiteSpace=wrap;html=1;rounded=0;" vertex="1" parent="1">
          <mxGeometry x="260" y="2167.5" width="110" height="65" as="geometry" />
        </mxCell>
        <mxCell id="-OwI9-CpuGyddkJ4qVBc-89" value="nombre= &quot;juan&quot; -&amp;gt; #variable de texto&lt;div&gt;edad=25 -&amp;gt; #variable de tipo numerica entera&lt;/div&gt;&lt;div&gt;Temperatura= 30.5 -&amp;gt; #variable de tipo numerica float&lt;/div&gt;&lt;div&gt;estamos_enclases=true -&amp;gt; #variable de tipo booleana&amp;nbsp;&lt;/div&gt;" style="whiteSpace=wrap;html=1;rounded=0;" vertex="1" parent="1">
          <mxGeometry x="472.5" y="2140" width="335" height="120" as="geometry" />
        </mxCell>
        <mxCell id="-OwI9-CpuGyddkJ4qVBc-98" value="" style="edgeStyle=orthogonalEdgeStyle;rounded=0;orthogonalLoop=1;jettySize=auto;html=1;" edge="1" parent="1" source="-OwI9-CpuGyddkJ4qVBc-95" target="-OwI9-CpuGyddkJ4qVBc-97">
          <mxGeometry relative="1" as="geometry" />
        </mxCell>
        <mxCell id="-OwI9-CpuGyddkJ4qVBc-100" value="" style="edgeStyle=orthogonalEdgeStyle;rounded=0;orthogonalLoop=1;jettySize=auto;html=1;" edge="1" parent="1" source="-OwI9-CpuGyddkJ4qVBc-95" target="-OwI9-CpuGyddkJ4qVBc-99">
          <mxGeometry relative="1" as="geometry" />
        </mxCell>
        <mxCell id="-OwI9-CpuGyddkJ4qVBc-95" value="Algoritmos" style="whiteSpace=wrap;html=1;rounded=0;" vertex="1" parent="1">
          <mxGeometry x="-350" y="2320" width="120" height="60" as="geometry" />
        </mxCell>
        <mxCell id="-OwI9-CpuGyddkJ4qVBc-97" value="Secuencia de pasos finitos para resolver un problema" style="whiteSpace=wrap;html=1;rounded=0;" vertex="1" parent="1">
          <mxGeometry x="-150" y="2320" width="120" height="60" as="geometry" />
        </mxCell>
        <mxCell id="-OwI9-CpuGyddkJ4qVBc-102" value="" style="edgeStyle=orthogonalEdgeStyle;rounded=0;orthogonalLoop=1;jettySize=auto;html=1;" edge="1" parent="1" source="-OwI9-CpuGyddkJ4qVBc-99" target="-OwI9-CpuGyddkJ4qVBc-101">
          <mxGeometry relative="1" as="geometry" />
        </mxCell>
        <mxCell id="-OwI9-CpuGyddkJ4qVBc-106" value="" style="edgeStyle=orthogonalEdgeStyle;rounded=0;orthogonalLoop=1;jettySize=auto;html=1;" edge="1" parent="1" source="-OwI9-CpuGyddkJ4qVBc-99" target="-OwI9-CpuGyddkJ4qVBc-105">
          <mxGeometry relative="1" as="geometry">
            <Array as="points">
              <mxPoint x="-290" y="2570" />
            </Array>
          </mxGeometry>
        </mxCell>
        <mxCell id="-OwI9-CpuGyddkJ4qVBc-99" value="Errores y depuración&amp;nbsp;" style="whiteSpace=wrap;html=1;rounded=0;" vertex="1" parent="1">
          <mxGeometry x="-350" y="2460" width="120" height="60" as="geometry" />
        </mxCell>
        <mxCell id="-OwI9-CpuGyddkJ4qVBc-104" value="" style="edgeStyle=orthogonalEdgeStyle;rounded=0;orthogonalLoop=1;jettySize=auto;html=1;" edge="1" parent="1" source="-OwI9-CpuGyddkJ4qVBc-101" target="-OwI9-CpuGyddkJ4qVBc-103">
          <mxGeometry relative="1" as="geometry" />
        </mxCell>
        <mxCell id="-OwI9-CpuGyddkJ4qVBc-101" value="Errores surgen en el codigo&amp;nbsp;" style="whiteSpace=wrap;html=1;rounded=0;" vertex="1" parent="1">
          <mxGeometry x="-140" y="2460" width="120" height="60" as="geometry" />
        </mxCell>
        <mxCell id="-OwI9-CpuGyddkJ4qVBc-103" value="sintaxis, lógica, ejecución" style="whiteSpace=wrap;html=1;rounded=0;" vertex="1" parent="1">
          <mxGeometry x="50" y="2460" width="120" height="60" as="geometry" />
        </mxCell>
        <mxCell id="-OwI9-CpuGyddkJ4qVBc-105" value="depurar, identificar y corregir los errores" style="whiteSpace=wrap;html=1;rounded=0;" vertex="1" parent="1">
          <mxGeometry x="-140" y="2560" width="120" height="60" as="geometry" />
        </mxCell>
        <mxCell id="-OwI9-CpuGyddkJ4qVBc-112" value="" style="edgeStyle=orthogonalEdgeStyle;rounded=0;orthogonalLoop=1;jettySize=auto;html=1;" edge="1" parent="1" source="-OwI9-CpuGyddkJ4qVBc-110" target="-OwI9-CpuGyddkJ4qVBc-111">
          <mxGeometry relative="1" as="geometry">
            <Array as="points">
              <mxPoint x="-50" y="2820" />
              <mxPoint x="-310" y="2820" />
            </Array>
          </mxGeometry>
        </mxCell>
        <mxCell id="-OwI9-CpuGyddkJ4qVBc-114" value="" style="edgeStyle=orthogonalEdgeStyle;rounded=0;orthogonalLoop=1;jettySize=auto;html=1;" edge="1" parent="1" source="-OwI9-CpuGyddkJ4qVBc-110" target="-OwI9-CpuGyddkJ4qVBc-113">
          <mxGeometry relative="1" as="geometry" />
        </mxCell>
        <mxCell id="-OwI9-CpuGyddkJ4qVBc-116" value="" style="edgeStyle=orthogonalEdgeStyle;rounded=0;orthogonalLoop=1;jettySize=auto;html=1;" edge="1" parent="1" source="-OwI9-CpuGyddkJ4qVBc-110" target="-OwI9-CpuGyddkJ4qVBc-115">
          <mxGeometry relative="1" as="geometry" />
        </mxCell>
        <mxCell id="-OwI9-CpuGyddkJ4qVBc-118" value="" style="edgeStyle=orthogonalEdgeStyle;rounded=0;orthogonalLoop=1;jettySize=auto;html=1;" edge="1" parent="1" source="-OwI9-CpuGyddkJ4qVBc-110" target="-OwI9-CpuGyddkJ4qVBc-117">
          <mxGeometry relative="1" as="geometry">
            <Array as="points">
              <mxPoint x="-50" y="2820" />
              <mxPoint x="180" y="2820" />
            </Array>
          </mxGeometry>
        </mxCell>
        <mxCell id="-OwI9-CpuGyddkJ4qVBc-110" value="Logica" style="rounded=0;whiteSpace=wrap;html=1;" vertex="1" parent="1">
          <mxGeometry x="-110" y="2710" width="120" height="60" as="geometry" />
        </mxCell>
        <mxCell id="-OwI9-CpuGyddkJ4qVBc-111" value="Analizar el problema" style="whiteSpace=wrap;html=1;rounded=0;" vertex="1" parent="1">
          <mxGeometry x="-370" y="2863" width="120" height="60" as="geometry" />
        </mxCell>
        <mxCell id="-OwI9-CpuGyddkJ4qVBc-113" value="Dividirlo en partes" style="whiteSpace=wrap;html=1;rounded=0;" vertex="1" parent="1">
          <mxGeometry x="-190" y="2860" width="120" height="60" as="geometry" />
        </mxCell>
        <mxCell id="-OwI9-CpuGyddkJ4qVBc-115" value="Escribir instrucciones precisas y claras" style="whiteSpace=wrap;html=1;rounded=0;" vertex="1" parent="1">
          <mxGeometry x="-50" y="2860" width="120" height="60" as="geometry" />
        </mxCell>
        <mxCell id="-OwI9-CpuGyddkJ4qVBc-117" value="Ejecutar esas instrucciones y ajustar" style="whiteSpace=wrap;html=1;rounded=0;" vertex="1" parent="1">
          <mxGeometry x="120" y="2860" width="120" height="60" as="geometry" />
        </mxCell>
      </root>
    </mxGraphModel>
  </diagram>
</mxfile>
